<svg width="153" height="30" viewBox="0 0 153 30" fill="none" xmlns="http://www.w3.org/2000/svg">
<path d="M94.6019 8.54736H93.9609V29.0849H94.6019V8.54736Z" fill="#7C7F7F"/>
<path d="M61.2779 6.80541C62.3749 5.42875 63.7716 4.29242 65.3741 3.48523L61.2779 6.80541Z" fill="url(#paint0_linear)"/>
<path d="M65.3774 3.48538C67.0763 2.63117 69.0019 2.14529 71.0474 2.14529C75.2687 2.14529 78.9923 4.20375 81.2176 7.34107L81.1967 7.29144C78.7135 3.46187 74.3228 0.914917 69.3172 0.914917C65.9115 0.914917 62.7899 2.09305 60.3587 4.05485L60.3431 4.0653C57.211 5.20163 54.772 7.71985 53.8131 10.8546C53.8157 10.8467 53.821 10.8363 53.8236 10.8284L53.8939 10.6247C54.5219 8.95545 55.8899 7.63103 57.6123 7.02499C58.2715 6.7925 58.9803 6.66711 59.7229 6.66711C60.2441 6.66711 60.7496 6.7298 61.2316 6.84735C61.2473 6.83168 61.2629 6.81862 61.2785 6.80295" fill="url(#paint1_linear)"/>
<path d="M61.2898 6.80565C63.549 3.97135 67.0823 2.14539 71.0587 2.14539C75.2565 2.14539 78.9644 4.18033 81.1949 7.29153H81.2106C84.6345 7.78525 87.2611 10.6509 87.2611 14.1121C87.2611 14.2898 87.2507 14.4648 87.2376 14.6398C88.7203 15.959 89.6505 17.8529 89.6505 19.9584C89.6505 23.9421 86.323 27.1734 82.219 27.1734V27.1682C85.5465 27.1682 88.2434 24.5507 88.2434 21.3194C88.2434 18.7646 86.5523 16.5912 84.1993 15.7944C84.4286 15.2772 84.5563 14.7077 84.5563 14.1095C84.5563 13.749 84.5094 13.4016 84.4234 13.0672C84.1863 12.1529 83.6443 11.3588 82.9121 10.7867C82.8704 10.7528 82.8313 10.7188 82.787 10.6875C82.0522 10.1546 81.1428 9.83848 80.1553 9.83848C79.9598 9.83848 79.7696 9.85155 79.5794 9.87506C79.1703 9.02607 78.6518 8.23717 78.042 7.52402C75.9652 5.09462 72.8332 3.54556 69.3259 3.54556C67.3038 3.54556 65.4068 4.06278 63.7626 4.96401C62.8532 5.46818 62.022 6.08728 61.2898 6.80565Z" fill="url(#paint2_linear)"/>
<path d="M53.8161 10.8545C54.7777 7.7067 57.2296 5.18326 60.38 4.05215L60.3617 4.05476C60.1507 4.03909 59.9396 4.03125 59.7259 4.03125C54.8402 4.03125 50.8691 7.84776 50.8065 12.5759L50.8039 12.6282C50.9525 12.6517 51.1036 12.6648 51.2573 12.6648C52.4534 12.6648 53.467 11.9046 53.8161 10.8545Z" fill="url(#paint3_linear)"/>
<path d="M84.2005 15.7942C86.5535 16.5909 88.2446 18.7617 88.2446 21.3191C88.2446 24.5505 85.5477 27.168 82.2202 27.168V27.1732L77.6628 27.168C77.6628 27.1627 77.6628 27.1575 77.6628 27.1497C77.6628 26.8179 77.7305 26.5018 77.8452 26.2093C78.2334 25.2323 79.208 24.54 80.3519 24.54H82.2202C84.8259 24.54 86.9392 22.4868 86.9392 19.9581C86.9392 19.1013 86.6968 18.2993 86.2747 17.6149C85.79 16.8234 85.0656 16.1886 84.2005 15.7994C84.1979 15.7968 84.2005 15.7968 84.2005 15.7942Z" fill="url(#paint4_linear)"/>
<path d="M50.8876 16.0324V27.1971H53.5064V13.6656C50.8876 13.6656 50.9189 15.8939 50.8876 16.0324Z" fill="#7C7F7F"/>
<path d="M66.0218 17.6494C65.928 17.0773 65.6987 16.5235 65.3469 16.0141C64.3567 14.4781 62.848 13.6945 60.865 13.6814H55.6718V27.2024H60.7243C61.8187 27.2024 62.7151 26.97 63.4682 26.518C64.229 26.0975 64.8752 25.5541 65.3052 24.9037C65.4615 24.6659 65.597 24.4308 65.7117 24.201C65.8211 23.9606 65.9045 23.6863 65.9592 23.3885C66.0713 22.8165 66.1234 21.8525 66.1234 20.4393C66.1286 19.1175 66.0947 18.2084 66.0218 17.6494ZM58.2828 16.2048H60.8416L60.9276 16.2022C61.8135 16.2022 62.4806 16.5105 62.9705 17.1453L62.9913 17.1714C63.2258 17.4221 63.377 17.7591 63.4395 18.164C63.4942 18.6342 63.5229 19.4101 63.5229 20.5098C63.5229 21.6383 63.4942 22.4142 63.4421 22.8138C63.39 23.177 63.2649 23.4774 63.0721 23.7046L63.0538 23.7255C62.5978 24.376 61.8708 24.6921 60.8312 24.6921H58.2801V16.2048H58.2828Z" fill="#7C7F7F"/>
<path fill-rule="evenodd" clip-rule="evenodd" d="M6.09219 10.3374H1.96211V13.6654H0V17.3383H1.96211V21.6537C1.96211 25.0392 4.78933 27.1969 8.27318 27.1969H10.7174V23.6782H8.26015C7.07976 23.6782 6.09219 22.7352 6.09219 21.5779V17.3383L8.80996 17.3304C9.88352 17.286 10.7174 16.4553 10.7174 15.4026V13.6654H6.09219V10.3374ZM29.859 21.7321C29.859 22.8841 28.9001 23.8402 27.6859 23.8402C26.4976 23.8402 25.5465 22.8841 25.5465 21.7321V15.6011C25.5465 14.5249 24.6424 13.6628 23.5349 13.6628H21.3722V21.2122C21.3722 24.6003 23.2744 27.3563 27.6859 27.3563C32.1182 27.3563 34.0152 24.6003 34.0152 21.2122V13.6628H29.8564V21.7321H29.859ZM48.2815 20.8387C48.2502 16.6434 45.9103 13.3441 41.5457 13.3441C37.8065 13.3441 34.7839 16.2855 34.7839 20.3241C34.7839 24.6891 37.5329 27.2779 41.577 27.3563C44.2114 27.3563 46.5174 25.9195 47.6822 23.8193L43.8987 22.8553C43.4427 23.5215 42.5463 23.9943 41.5457 23.9943C40.0761 23.9943 38.8722 22.9624 38.8331 21.7138H48.2815C48.2893 21.5179 48.2815 21.045 48.2815 20.8387ZM38.8331 18.9552C38.8722 17.7092 40.0787 16.6904 41.5457 16.6904C43.0492 16.6904 44.2505 17.6961 44.2713 18.9552H38.8331ZM17.9873 13.6654H17.9222H17.4297C14.2611 13.6654 11.6841 16.1497 11.6841 19.2478V27.1995H15.8402V19.4411C15.8402 18.2734 16.7939 17.3356 17.9873 17.3356H20.4133V13.6654H18.8733H17.9873Z" fill="#EC1C24"/>
<path d="M67.7094 23.5221C67.811 24.0733 67.9726 24.5252 68.1862 24.8727C68.5276 25.5179 69.0722 26.0978 69.8096 26.5968C70.5444 27.1114 71.4747 27.3778 72.5665 27.3909C73.9162 27.3778 75.0289 26.9703 75.8836 26.1814C76.7252 25.3951 77.2646 24.4103 77.4861 23.2557L77.5643 22.8508H74.7865L74.711 23.0963C74.5677 23.5639 74.3149 23.9532 73.9371 24.2823C73.5671 24.5775 73.1137 24.7316 72.5587 24.7421C72.1678 24.7316 71.7457 24.6506 71.4616 24.5043C71.1698 24.3502 70.9327 24.1569 70.7555 23.9296L70.7373 23.9087C70.5262 23.6763 70.3829 23.368 70.3099 22.9892C70.2187 22.5425 70.1718 21.6831 70.1718 20.4266C70.1718 20.4266 70.2161 18.3107 70.3099 17.864C70.3829 17.4852 70.5262 17.177 70.7373 16.9445L70.7555 16.9236C70.9327 16.6963 71.1724 16.5004 71.4616 16.3463C71.7457 16.2 72.1678 16.119 72.5587 16.1085C73.1137 16.119 73.5671 16.2731 73.9371 16.5683C74.3149 16.8974 74.5677 17.2867 74.711 17.7543L74.7865 17.9998H77.5643L77.4861 17.5949C77.2646 16.4403 76.7252 15.4555 75.8836 14.6692C75.0289 13.8803 73.9162 13.4728 72.5665 13.4597C71.4747 13.4728 70.5444 13.7418 69.8096 14.2538C69.0722 14.7528 68.5276 15.3327 68.1862 15.9779C67.9726 16.3254 67.811 16.7799 67.7094 17.3285C67.6156 17.864 67.5713 18.8775 67.5713 20.424C67.5713 20.4266 67.6156 22.9866 67.7094 23.5221Z" fill="#7C7F7F"/>
<path d="M105.104 17.422H103.637C103.514 17.422 103.413 17.3202 103.413 17.1974V13.953H100.645V17.1974C100.645 17.3202 100.544 17.422 100.421 17.422H98.9542C98.8317 17.422 98.7301 17.3202 98.7301 17.1974V9.2927C98.7301 9.16992 98.8317 9.07849 98.9542 9.07849H100.421C100.544 9.07849 100.645 9.16731 100.645 9.2927V12.2785H103.413V9.2927C103.413 9.16992 103.514 9.07849 103.637 9.07849H105.104C105.226 9.07849 105.328 9.16731 105.328 9.2927V17.1974C105.328 17.3202 105.229 17.422 105.104 17.422Z" fill="#7C7F7F"/>
<path d="M112.485 11.2469L110.603 17.8611C110.257 19.0732 109.798 19.6923 108.151 19.6923C107.737 19.6923 107.075 19.6035 106.796 19.5121C106.674 19.4677 106.562 19.4337 106.562 19.3109V18.4019C106.562 18.2791 106.663 18.1877 106.786 18.1877C106.796 18.1877 106.796 18.1877 106.809 18.1877C107.179 18.2112 107.839 18.2765 108.209 18.2765C108.612 18.2765 108.813 18.1406 108.949 17.6913L109.05 17.3439H108.883C108.469 17.3439 108.123 17.276 107.841 16.299L106.364 11.2469C106.353 11.2129 106.353 11.1894 106.353 11.1685C106.353 11.0562 106.421 10.9883 106.577 10.9883H108.068C108.18 10.9883 108.258 11.0902 108.282 11.2025L109.29 15.4239C109.324 15.5806 109.358 15.6381 109.425 15.6381H109.436C109.459 15.6381 109.47 15.6381 109.48 15.6381C109.514 15.6381 109.524 15.6381 109.524 15.6381L110.567 11.2025C110.59 11.0902 110.679 10.9883 110.801 10.9883H112.292C112.404 10.9883 112.505 11.0771 112.505 11.1894C112.498 11.2129 112.485 11.2234 112.485 11.2469Z" fill="#7C7F7F"/>
<path d="M116.148 17.5233C115.286 17.5233 114.4 17.3875 113.761 17.2308C113.459 17.1628 113.415 17.0845 113.415 16.9042V9.03349C113.415 8.91072 113.527 8.80884 113.649 8.80884H115.004C115.127 8.80884 115.228 8.91072 115.228 9.03349V10.977C115.554 10.9326 115.924 10.8986 116.148 10.8986C118.04 10.8986 118.96 12.0115 118.96 13.7721V14.6472C118.96 16.468 117.964 17.5233 116.148 17.5233ZM117.146 13.7721C117.146 12.9858 116.945 12.4033 116.148 12.4033C115.88 12.4033 115.499 12.4268 115.228 12.4582V15.9612C115.442 15.9952 115.778 16.0291 116.148 16.0291C116.943 16.0291 117.146 15.444 117.146 14.6472V13.7721Z" fill="#7C7F7F"/>
<path d="M123.451 12.4038H123.363C122.813 12.4038 122.333 12.571 121.919 12.7957V17.1869C121.919 17.3097 121.817 17.422 121.695 17.422H120.34C120.217 17.422 120.105 17.3097 120.105 17.1869V11.2126C120.105 11.0899 120.207 10.988 120.329 10.988H121.664C121.786 10.988 121.888 11.0899 121.888 11.2126V11.4373C122.302 11.0899 122.862 10.8992 123.399 10.8992C123.522 10.8992 123.623 11.001 123.623 11.1238V12.1896C123.621 12.2915 123.553 12.4038 123.451 12.4038Z" fill="#7C7F7F"/>
<path d="M126.221 10.2589H124.764C124.642 10.2589 124.54 10.157 124.54 10.0342V8.9893C124.54 8.86653 124.642 8.76465 124.764 8.76465H126.221C126.343 8.76465 126.445 8.86653 126.445 8.9893V10.0342C126.445 10.157 126.343 10.2589 126.221 10.2589ZM126.176 17.4217H124.811C124.689 17.4217 124.587 17.3198 124.587 17.197V11.2123C124.587 11.0896 124.689 10.9877 124.811 10.9877H126.176C126.299 10.9877 126.4 11.0896 126.4 11.2123V17.197C126.4 17.3198 126.299 17.4217 126.176 17.4217Z" fill="#7C7F7F"/>
<path d="M132.784 17.2312C132.145 17.3879 131.259 17.5238 130.397 17.5238C128.583 17.5238 127.585 16.4684 127.585 14.6503V13.7752C127.585 12.0119 128.502 10.9017 130.397 10.9017C130.621 10.9017 130.991 10.9357 131.314 10.9801V9.03654C131.314 8.91377 131.416 8.81189 131.538 8.81189H132.893C133.015 8.81189 133.127 8.91377 133.127 9.03654V16.9073C133.13 17.0849 133.086 17.1633 132.784 17.2312ZM131.316 12.4586C131.048 12.4246 130.668 12.4037 130.399 12.4037C129.605 12.4037 129.401 12.9889 129.401 13.7726V14.6477C129.401 15.4444 129.602 16.0296 130.399 16.0296C130.769 16.0296 131.105 15.9956 131.316 15.9616V12.4586Z" fill="#7C7F7F"/>
<path d="M106.113 28.654H104.636C104.534 28.654 104.456 28.5521 104.456 28.4293V23.7482C104.456 23.6698 104.422 23.6593 104.401 23.6593C104.367 23.6593 104.346 23.6828 104.312 23.7377L103.304 25.5898C103.226 25.7256 103.114 25.7805 102.968 25.7805H102.072C101.926 25.7805 101.814 25.7256 101.735 25.5898L100.727 23.7377C100.693 23.6802 100.672 23.6593 100.638 23.6593C100.615 23.6593 100.584 23.6698 100.584 23.7482V28.4293C100.584 28.5521 100.505 28.654 100.404 28.654H98.9264C98.8378 28.654 98.7362 28.62 98.7362 28.4972V20.6918C98.7362 20.4567 98.903 20.3104 99.1401 20.3104H100.193C100.427 20.3104 100.584 20.4228 100.685 20.6134L102.4 23.8135C102.444 23.9023 102.478 23.9597 102.522 23.9597C102.567 23.9597 102.601 23.9049 102.645 23.8135L104.359 20.6134C104.461 20.4228 104.617 20.3104 104.852 20.3104H105.905C106.139 20.3104 106.308 20.4672 106.308 20.7023V28.4946C106.303 28.62 106.204 28.654 106.113 28.654Z" fill="#7C7F7F"/>
<path d="M113.045 28.6542H111.791C111.669 28.6542 111.567 28.5523 111.567 28.4296V28.1605C110.952 28.5994 110.46 28.7456 109.741 28.7456C108.117 28.7456 107.758 27.6119 107.758 26.1961V22.4553C107.758 22.3325 107.87 22.2202 107.992 22.2202H109.347C109.47 22.2202 109.571 22.3325 109.571 22.4553V26.1935C109.571 26.9798 109.717 27.2384 110.4 27.2384C110.726 27.2384 111.072 27.0816 111.453 26.8779V22.4553C111.453 22.3325 111.554 22.2202 111.677 22.2202H113.032C113.154 22.2202 113.266 22.3325 113.266 22.4553V28.4296C113.269 28.5523 113.17 28.6542 113.045 28.6542Z" fill="#7C7F7F"/>
<path d="M116.216 28.6541H114.85C114.728 28.6541 114.616 28.5418 114.616 28.419V20.2662C114.616 20.1434 114.728 20.0415 114.85 20.0415H116.216C116.338 20.0415 116.429 20.1434 116.429 20.2662V28.419C116.429 28.5418 116.338 28.6541 116.216 28.6541Z" fill="#7C7F7F"/>
<path d="M121.257 28.6651C120.921 28.72 120.697 28.754 120.371 28.754C119.139 28.754 118.49 28.4274 118.49 26.834V23.5791L117.594 23.4328C117.471 23.4093 117.359 23.3205 117.359 23.1977V22.4558C117.359 22.333 117.471 22.2207 117.594 22.2207H118.49V21.3012C118.49 21.1784 118.592 21.1 118.714 21.0765L120.08 20.8414C120.09 20.8414 120.103 20.8414 120.113 20.8414C120.225 20.8414 120.314 20.9198 120.314 21.0321V22.2233H121.234C121.356 22.2233 121.458 22.3252 121.458 22.448V23.357C121.458 23.4798 121.356 23.5817 121.234 23.5817H120.314V26.8496C120.314 27.2989 120.348 27.3773 120.684 27.3773H121.234C121.38 27.3773 121.468 27.4452 121.468 27.568V28.4431C121.468 28.5528 121.39 28.6442 121.257 28.6651Z" fill="#7C7F7F"/>
<path d="M124.168 21.4916H122.711C122.589 21.4916 122.487 21.3898 122.487 21.267V20.2221C122.487 20.0993 122.589 19.9974 122.711 19.9974H124.168C124.29 19.9974 124.392 20.0993 124.392 20.2221V21.267C124.392 21.3898 124.293 21.4916 124.168 21.4916ZM124.123 28.6545H122.758C122.636 28.6545 122.534 28.5526 122.534 28.4298V22.4451C122.534 22.3223 122.636 22.2205 122.758 22.2205H124.123C124.246 22.2205 124.348 22.3223 124.348 22.4451V28.4298C124.348 28.5526 124.246 28.6545 124.123 28.6545Z" fill="#7C7F7F"/>
<path d="M129.673 28.5867C129.36 28.6651 128.855 28.7539 128.182 28.7539C126.603 28.7539 125.574 27.7429 125.574 25.9117V24.9687C125.574 23.1375 126.603 22.1266 128.182 22.1266C128.855 22.1266 129.357 22.2154 129.673 22.2938C129.842 22.3382 129.907 22.3826 129.907 22.5524V23.5529C129.907 23.6652 129.806 23.7436 129.694 23.7436C129.694 23.7436 129.683 23.7436 129.67 23.7436C129.256 23.6992 128.943 23.6652 128.305 23.6652C127.802 23.6652 127.385 23.9682 127.385 24.9687V25.9117C127.385 26.9122 127.799 27.2153 128.305 27.2153C128.943 27.2153 129.256 27.1813 129.67 27.1369C129.681 27.1369 129.694 27.1369 129.694 27.1369C129.806 27.1369 129.907 27.2153 129.907 27.3276V28.3281C129.907 28.4979 129.842 28.5423 129.673 28.5867Z" fill="#7C7F7F"/>
<path d="M132.651 28.6541H131.286C131.164 28.6541 131.052 28.5418 131.052 28.419V20.2662C131.052 20.1434 131.164 20.0415 131.286 20.0415H132.651C132.774 20.0415 132.865 20.1434 132.865 20.2662V28.419C132.862 28.5418 132.774 28.6541 132.651 28.6541Z" fill="#7C7F7F"/>
<path d="M136.839 28.7562C135.026 28.7562 134.028 27.6225 134.028 25.8357V25.0494C134.028 23.2652 135.026 22.1289 136.839 22.1289C138.653 22.1289 139.641 23.2626 139.641 25.0494V25.8357C139.638 27.6225 138.653 28.7562 136.839 28.7562ZM137.835 25.0494C137.835 24.1403 137.488 23.6806 136.837 23.6806C136.185 23.6806 135.828 24.1403 135.828 25.0494V25.8357C135.828 26.7448 136.188 27.2176 136.837 27.2176C137.486 27.2176 137.835 26.7448 137.835 25.8357V25.0494Z" fill="#7C7F7F"/>
<path d="M146.092 28.6542H144.839C144.716 28.6542 144.615 28.5523 144.615 28.4296V28.1605C144 28.5994 143.507 28.7456 142.788 28.7456C141.165 28.7456 140.805 27.6119 140.805 26.1961V22.4553C140.805 22.3325 140.917 22.2202 141.04 22.2202H142.395C142.517 22.2202 142.619 22.3325 142.619 22.4553V26.1935C142.619 26.9798 142.765 27.2384 143.448 27.2384C143.773 27.2384 144.12 27.0816 144.5 26.8779V22.4553C144.5 22.3325 144.602 22.2202 144.724 22.2202H146.079C146.202 22.2202 146.314 22.3325 146.314 22.4553V28.4296C146.316 28.5523 146.217 28.6542 146.092 28.6542Z" fill="#7C7F7F"/>
<path d="M152.656 28.4639C152.017 28.6206 151.131 28.7564 150.269 28.7564C148.455 28.7564 147.457 27.7011 147.457 25.883V25.0078C147.457 23.2446 148.374 22.1344 150.269 22.1344C150.493 22.1344 150.863 22.1683 151.186 22.2127V20.2692C151.186 20.1464 151.288 20.0446 151.41 20.0446H152.765C152.888 20.0446 153 20.1464 153 20.2692V28.1399C153.005 28.3176 152.96 28.3959 152.656 28.4639ZM151.189 23.6913C150.92 23.6573 150.54 23.6364 150.271 23.6364C149.477 23.6364 149.273 24.2216 149.273 25.0052V25.8803C149.273 26.6771 149.474 27.2622 150.271 27.2622C150.641 27.2622 150.978 27.2283 151.189 27.1943V23.6913Z" fill="#7C7F7F"/>
<defs>
<linearGradient id="paint0_linear" x1="65.6486" y1="4.54312" x2="61.0041" y2="5.74126" gradientUnits="userSpaceOnUse">
<stop stop-color="#EEECF6"/>
<stop offset="0.1425" stop-color="#E8E6F0"/>
<stop offset="0.3387" stop-color="#D7D6DE"/>
<stop offset="0.566" stop-color="#BBBBC1"/>
<stop offset="0.8148" stop-color="#959699"/>
<stop offset="0.9945" stop-color="#757777"/>
</linearGradient>
<linearGradient id="paint1_linear" x1="80.0092" y1="2.65834" x2="53.4673" y2="9.50538" gradientUnits="userSpaceOnUse">
<stop stop-color="#EEECF6"/>
<stop offset="0.1425" stop-color="#E8E6F0"/>
<stop offset="0.3387" stop-color="#D7D6DE"/>
<stop offset="0.566" stop-color="#BBBBC1"/>
<stop offset="0.8148" stop-color="#959699"/>
<stop offset="0.9945" stop-color="#757777"/>
</linearGradient>
<linearGradient id="paint2_linear" x1="82.3455" y1="16.4222" x2="42.4786" y2="0.916554" gradientUnits="userSpaceOnUse">
<stop stop-color="#DCDBE6"/>
<stop offset="0.0191" stop-color="#D8D7E2"/>
<stop offset="0.2229" stop-color="#B5B5BC"/>
<stop offset="0.4254" stop-color="#999A9E"/>
<stop offset="0.6236" stop-color="#858788"/>
<stop offset="0.8156" stop-color="#797B7B"/>
<stop offset="0.9945" stop-color="#757777"/>
</linearGradient>
<linearGradient id="paint3_linear" x1="58.58" y1="2.13543" x2="49.979" y2="16.7004" gradientUnits="userSpaceOnUse">
<stop stop-color="#EEECF6"/>
<stop offset="0.1638" stop-color="#EAE8F2"/>
<stop offset="0.3434" stop-color="#DDDCE4"/>
<stop offset="0.5306" stop-color="#C8C8CE"/>
<stop offset="0.7229" stop-color="#ABABB0"/>
<stop offset="0.9174" stop-color="#868789"/>
<stop offset="0.9945" stop-color="#757777"/>
</linearGradient>
<linearGradient id="paint4_linear" x1="80.7076" y1="27.4859" x2="89.8453" y2="14.2223" gradientUnits="userSpaceOnUse">
<stop stop-color="#CBCADA"/>
<stop offset="0.2458" stop-color="#EEECF6"/>
<stop offset="0.3952" stop-color="#CBCACF"/>
<stop offset="0.55" stop-color="#AAAAAB"/>
<stop offset="0.6174" stop-color="#A1A1A2"/>
<stop offset="0.7264" stop-color="#898A8B"/>
<stop offset="0.8009" stop-color="#757777"/>
<stop offset="0.9106" stop-color="#6B6E6E"/>
<stop offset="1" stop-color="#5F6363"/>
</linearGradient>
</defs>
</svg>
